# xmcd
#
# Track frame offsets: 
#        150
#        9871
#        19934
#        30429
#        43805
#        55547
#        66760
#        77866
#        90702
#        99496
#
# Disc length: 1539 seconds
#
# Revision: 0
# Processed by: cddbd v1.5.2PL0 Copyright (c) Steve Scherf et al.
# Submitted via: ExactAudioCopy v1.0b1
#
DISCID=6e06010a
DTITLE=Stella Parton - Country Sweet
DYEAR=1977
DGENRE=Country
TTITLE0=Easy To Love
TTITLE1=Charlie's Baby
TTITLE2=Little Bitty Tear
TTITLE3=If You're A Dream
TTITLE4=I'm Not That Good At Goodbye
TTITLE5=Standard Lie Number One
TTITLE6=Danger Of A Stranger
TTITLE7=I've Got To Have You For Mine
TTITLE8=I'ts The Little Things
TTITLE9=The More The Change
EXTD=
EXTT0=
EXTT1=
EXTT2=
EXTT3=
EXTT4=
EXTT5=
EXTT6=
EXTT7=
EXTT8=
EXTT9=
PLAYORDER=
